<svg xmlns="http://www.w3.org/2000/svg" viewBox="0 0 1200 760" role="img" aria-labelledby="title desc">
  <title id="title">Hospital network map preview</title>
  <desc id="desc">Light ArcGIS-style map with Red Cross service footprint polygons, hospital points, and side panels.</desc>
  <defs>
    <linearGradient id="water" x1="0" x2="1" y1="0" y2="1">
      <stop offset="0" stop-color="#eef4f7"/>
      <stop offset="1" stop-color="#c7d9e2"/>
    </linearGradient>
    <linearGradient id="land" x1="0" x2="1" y1="0" y2="1">
      <stop offset="0" stop-color="#f6f7f4"/>
      <stop offset="1" stop-color="#dfe7df"/>
    </linearGradient>
    <filter id="shadow" x="-20%" y="-20%" width="140%" height="140%">
      <feDropShadow dx="0" dy="14" stdDeviation="18" flood-color="#17212f" flood-opacity=".22"/>
    </filter>
  </defs>
  <rect width="1200" height="760" fill="url(#water)"/>
  <path d="M0 70 C160 92 250 142 364 119 C488 94 584 124 697 188 C804 250 911 274 1200 250 L1200 760 L0 760 Z" fill="url(#land)"/>
  <path d="M250 0 C260 132 224 235 263 350 C301 463 288 589 326 760" fill="none" stroke="#8b969d" stroke-width="4" opacity=".55"/>
  <path d="M0 388 C155 377 246 399 347 364 C480 319 589 355 709 332 C838 308 947 329 1200 306" fill="none" stroke="#d45b69" stroke-width="2" opacity=".48"/>
  <path d="M0 545 C180 530 305 560 457 528 C642 489 785 509 1200 455" fill="none" stroke="#d45b69" stroke-width="2" opacity=".35"/>
  <g opacity=".38" stroke="#8a949a" stroke-width="1.4" fill="none">
    <path d="M74 0V760M178 0V760M449 0V760M610 0V760M807 0V760M1006 0V760"/>
    <path d="M0 156H1200M0 288H1200M0 418H1200M0 618H1200"/>
  </g>
  <path d="M105 215 L724 116 L1032 245 L946 603 L389 686 L178 514 Z" fill="#cf1f36" opacity=".24" stroke="#bf1e32" stroke-width="6"/>
  <path d="M570 388 L729 335 L829 447 L722 558 L548 529 Z" fill="#2a75a9" opacity=".2" stroke="#2a75a9" stroke-width="5"/>
  <g stroke="#fff" stroke-width="5">
    <circle cx="626" cy="362" r="13" fill="#c21f32"/>
    <circle cx="704" cy="430" r="13" fill="#c21f32"/>
    <circle cx="768" cy="495" r="13" fill="#2d7fc0"/>
    <circle cx="560" cy="482" r="13" fill="#2b9d62"/>
    <rect x="657" y="508" width="22" height="22" rx="4" fill="#c21f32"/>
    <path d="M866 384 l16 16 -16 16 -16 -16z" fill="#d6a64f"/>
  </g>
  <g filter="url(#shadow)">
    <rect x="28" y="34" width="314" height="682" rx="18" fill="#ffffff" opacity=".96"/>
    <rect x="858" y="34" width="314" height="682" rx="18" fill="#ffffff" opacity=".96"/>
  </g>
  <g fill="#17212f">
    <text x="60" y="86" font-family="Inter, Arial, sans-serif" font-size="22" font-weight="800">Hospital Network Reach</text>
    <text x="60" y="122" font-family="Inter, Arial, sans-serif" font-size="13" fill="#647085">Live ArcGIS portfolio view</text>
    <rect x="60" y="164" width="246" height="64" rx="10" fill="#f3f5f7" stroke="#d9dee6"/>
    <rect x="60" y="250" width="246" height="64" rx="10" fill="#101317"/>
    <rect x="60" y="336" width="246" height="64" rx="10" fill="#f3f5f7" stroke="#d9dee6"/>
    <rect x="890" y="74" width="76" height="56" rx="8" fill="#f3f5f7" stroke="#d9dee6"/>
    <rect x="982" y="74" width="76" height="56" rx="8" fill="#f3f5f7" stroke="#d9dee6"/>
    <text x="890" y="184" font-family="Inter, Arial, sans-serif" font-size="21" font-weight="800">Selected feature</text>
    <rect x="890" y="222" width="246" height="80" rx="10" fill="#f7f9fc" stroke="#d9dee6"/>
    <rect x="890" y="320" width="246" height="80" rx="10" fill="#f7f9fc" stroke="#d9dee6"/>
    <rect x="890" y="418" width="246" height="80" rx="10" fill="#f7f9fc" stroke="#d9dee6"/>
  </g>
  <rect x="688" y="700" width="232" height="34" rx="17" fill="#ffffff" opacity=".94" filter="url(#shadow)"/>
</svg>
