<svg xmlns="http://www.w3.org/2000/svg" viewBox="0 0 1200 760" role="img" aria-labelledby="title desc">
  <title id="title">Map App V1 preview</title>
  <desc id="desc">Topographic map preview with fixed and mobile site search panels and selected market detail.</desc>
  <defs>
    <linearGradient id="map" x1="0" x2="1" y1="0" y2="1">
      <stop offset="0" stop-color="#d9e4dc"/>
      <stop offset=".5" stop-color="#eef0e7"/>
      <stop offset="1" stop-color="#cbdde5"/>
    </linearGradient>
    <filter id="shadow" x="-20%" y="-20%" width="140%" height="140%">
      <feDropShadow dx="0" dy="18" stdDeviation="18" flood-color="#000" flood-opacity=".28"/>
    </filter>
  </defs>
  <rect width="1200" height="760" fill="url(#map)"/>
  <g fill="none" stroke-linecap="round">
    <path d="M0 252 C148 234 205 288 336 270 C472 250 553 204 678 226 C836 253 911 226 1200 188" stroke="#dd8f41" stroke-width="3" opacity=".52"/>
    <path d="M0 440 C164 410 252 458 387 434 C528 410 634 454 762 420 C925 377 989 409 1200 362" stroke="#dd8f41" stroke-width="3" opacity=".42"/>
    <path d="M190 0 C228 104 206 198 255 305 C305 413 282 568 324 760" stroke="#4c7b85" stroke-width="8" opacity=".46"/>
    <path d="M501 0 C470 154 496 263 470 392 C446 509 474 620 436 760" stroke="#4c7b85" stroke-width="5" opacity=".32"/>
    <path d="M0 330 H1200M0 560 H1200M130 0 V760M355 0 V760M710 0 V760M960 0 V760" stroke="#7f8b8f" stroke-width="1.2" opacity=".35"/>
  </g>
  <g font-family="Inter, Arial, sans-serif" font-size="14" fill="#50616c" opacity=".8">
    <text x="257" y="365">Dubuque</text>
    <text x="740" y="268">Madison</text>
    <text x="408" y="586">Cedar Rapids</text>
  </g>
  <g stroke="#fff" stroke-width="5">
    <rect x="260" y="338" width="28" height="28" rx="5" fill="#c21f32"/>
    <rect x="742" y="240" width="28" height="28" rx="5" fill="#c21f32"/>
    <circle cx="438" cy="574" r="15" fill="#2b9d62"/>
    <circle cx="882" cy="392" r="15" fill="#2d7fc0"/>
  </g>
  <g filter="url(#shadow)">
    <rect x="30" y="38" width="286" height="670" rx="16" fill="#242a32" opacity=".96"/>
    <rect x="884" y="38" width="286" height="670" rx="16" fill="#242a32" opacity=".96"/>
  </g>
  <g font-family="Inter, Arial, sans-serif">
    <text x="60" y="95" fill="#fff" font-size="30" font-weight="850">Mobile &amp; Fixed</text>
    <text x="60" y="132" fill="#fff" font-size="30" font-weight="850">Site Locations</text>
    <rect x="60" y="176" width="226" height="42" rx="21" fill="#ffffff" opacity=".18"/>
    <rect x="60" y="244" width="226" height="44" rx="22" fill="#ffffff" opacity=".16"/>
    <rect x="60" y="330" width="226" height="54" rx="10" fill="#ffffff" opacity=".12" stroke="#d6a64f"/>
    <rect x="60" y="398" width="226" height="54" rx="10" fill="#ffffff" opacity=".1"/>
    <rect x="60" y="466" width="226" height="54" rx="10" fill="#ffffff" opacity=".1"/>
    <text x="914" y="100" fill="#ffb2bd" font-size="13" font-weight="800">FIXED SITE</text>
    <text x="914" y="155" fill="#fff" font-size="34" font-weight="850">Dubuque IA</text>
    <text x="914" y="194" fill="#fff" font-size="34" font-weight="850">Blood Center</text>
    <rect x="914" y="248" width="70" height="58" rx="8" fill="#ffffff" opacity=".13"/>
    <rect x="998" y="248" width="70" height="58" rx="8" fill="#ffffff" opacity=".13"/>
    <rect x="914" y="368" width="226" height="136" rx="12" fill="#ffffff" opacity=".08"/>
  </g>
</svg>
